<svg width="88" height="74" viewBox="0 0 88 74" fill="none" xmlns="http://www.w3.org/2000/svg">
<path d="M6.04897 31.9719C29.6757 21.6804 45.4266 14.895 53.3022 11.6169C75.8147 2.25612 80.4867 0.630359 83.5381 0.575914C84.2092 0.564518 85.7033 0.730385 86.6782 1.51921C87.4886 2.18395 87.7167 3.08293 87.8306 3.71348C87.9319 4.34403 88.0713 5.78114 87.9574 6.90297C86.7418 19.7166 81.4619 50.8112 78.7776 65.1633C77.6508 71.2361 75.4095 73.2721 73.2443 73.4709C68.5342 73.9039 64.9634 70.3612 60.4052 67.374C53.2767 62.6981 49.2505 59.7884 42.3246 55.2264C34.3224 49.954 39.5135 47.0558 44.0718 42.3203C45.262 41.0807 66.0016 22.2211 66.3942 20.5105C66.4448 20.2965 66.4957 19.4988 66.0146 19.0785C65.5461 18.6568 64.8493 18.8012 64.3428 18.9151C63.6211 19.0772 52.2382 26.6084 30.1563 41.5074C26.9275 43.7283 24.0027 44.8109 21.3691 44.7539C18.4823 44.6918 12.9115 43.118 8.77111 41.7733C3.70643 40.1235 -0.332846 39.2511 0.0216811 36.4491C0.198945 34.9904 2.21247 33.4976 6.04897 31.9719Z" fill="white"/>
</svg>
